<?xml version="1.0" encoding="iso-8859-1"?>
<!-- Generator: Adobe Illustrator 19.0.0, SVG Export Plug-In . SVG Version: 6.00 Build 0)  -->
<svg version="1.1" id="Capa_1" xmlns="http://www.w3.org/2000/svg" xmlns:xlink="http://www.w3.org/1999/xlink" x="0px" y="0px"
	 viewBox="0 0 511.996 511.996" style="enable-background:new 0 0 511.996 511.996;" xml:space="preserve">
<g transform="translate(-1)">
	<g>
		<g>
			<path d="M233.038,122.798l-2.468-3.483c-9.453,44.888-32.363,85.818-65.678,117.349c-54.168,48.92-138.66,194.848-163.271,238.41
				c-2.203,3.977,1.499,12.735,10.404,18.842c24.035,16.438,34.548,16.703,37.931,16.063c1.408-0.183,2.66-0.987,3.419-2.176
				c4.864-9.462,6.747-20.168,5.412-30.718c-1.783-22.91,4.077-45.766,16.685-64.974c23.395-29.456,48.417-57.578,74.948-84.236
				C198.233,277.1,257.749,213.909,274.708,181.61c4.9-9.252,9.261-17.782,13.238-25.68l-0.11-0.018
				C265.776,152.931,245.928,140.945,233.038,122.798z"/>
			<path d="M352.453,38.754c1.655-2.432,2.276-5.43,1.719-8.319c-0.549-2.889-2.231-5.44-4.672-7.094L321.598,4.415
				c-6.747-4.599-15.944-2.871-20.561,3.867l-4.608,6.802l49.368,33.488L352.453,38.754z"/>
			<path d="M446.673,100.308l-75.35-16.483c-6.18-1.454-12.04-4.013-17.288-7.579l-10.669-7.231
				c-0.091-0.055-0.201-0.073-0.293-0.137c-0.073-0.046-0.101-0.128-0.174-0.174l-64.105-43.48
				c-0.064-0.046-0.146-0.046-0.219-0.091c-0.064-0.046-0.101-0.128-0.165-0.174L254.814,8.95c-2.304-1.554-5.43-0.96-6.994,1.344
				l-38.306,56.49c-0.75,1.106-1.024,2.468-0.777,3.785c0.247,1.317,1.015,2.478,2.121,3.227l12.296,8.338
				c3.383,2.359,6.418,5.184,9.023,8.383c0.329,0.338,0.64,0.695,0.914,1.079c0.448,0.585,0.997,1.079,1.426,1.682l13.439,18.961
				c9.947,14.006,25.26,23.258,42.292,25.562l16.502,2.203c37.108,8.109,41.003,35.792,45.135,65.102
				c0.942,6.72,1.938,13.832,3.364,21.237c0.978,4.699,2.587,9.243,4.763,13.512C426.066,178.858,442.623,124.279,446.673,100.308z"
				/>
			<path d="M509.087,113.957l-44.523-9.736c-5.028,29.548-24.172,87.217-94.338,151.084c7.524,8.603,16.273,16.045,25.973,22.097
				c2.414,1.572,5.43,1.902,8.137,0.896c13.924-5.366,41.752-20.936,71.638-65.001c19.372-28.103,32.034-60.275,37.008-94.037
				C513.173,116.773,511.518,114.515,509.087,113.957z"/>
		</g>
	</g>
</g>
<g>
</g>
<g>
</g>
<g>
</g>
<g>
</g>
<g>
</g>
<g>
</g>
<g>
</g>
<g>
</g>
<g>
</g>
<g>
</g>
<g>
</g>
<g>
</g>
<g>
</g>
<g>
</g>
<g>
</g>
</svg>
