<?xml version="1.0"?>
<svg xmlns="http://www.w3.org/2000/svg" xmlns:xlink="http://www.w3.org/1999/xlink" xmlns:svgjs="http://svgjs.com/svgjs" version="1.1" width="512" height="512" x="0" y="0" viewBox="0 0 512 512" style="enable-background:new 0 0 512 512" xml:space="preserve" class=""><g>
<g xmlns="http://www.w3.org/2000/svg">
	<g>
		<path d="M497,361.5h-65.333V16.998c0-7.432-5.441-13.743-12.793-14.837C409.238,0.728,399.575,0,390.151,0    c-75.213,0-130.42,45.022-183.81,88.562c-51.584,42.067-100.308,81.802-164.827,81.808c-0.005,0-0.01,0-0.016,0    c-7.939,0-16.112-0.617-24.291-1.834c-4.313-0.642-8.697,0.627-12.003,3.477C1.9,174.861,0,179.008,0,183.372v193.127v0.001    c0,8.284,6.716,15,15,15h36.02c-0.446-4.943-0.687-9.944-0.687-15.001c0-91.257,74.243-165.5,165.5-165.5    s165.5,74.243,165.5,165.5c0,5.057-0.24,10.058-0.688,15.001H497c8.284,0,15-6.716,15-15S505.284,361.5,497,361.5z" fill="#ffffff" data-original="#000000" style="" class=""/>
	</g>
</g>
<g xmlns="http://www.w3.org/2000/svg">
	<g>
		<path d="M215.833,240.999c-74.715,0-135.5,60.785-135.5,135.5S141.118,512,215.833,512s135.5-60.786,135.5-135.501    S290.548,240.999,215.833,240.999z M131.507,313.173l48.476,48.476h-68.6C113.932,343.639,121.04,327.075,131.507,313.173z     M111.383,391.349h68.6l-48.476,48.477C121.04,425.923,113.932,409.359,111.383,391.349z M200.983,480.95    c-18.011-2.548-34.574-9.657-48.477-20.124l48.477-48.476V480.95z M200.983,340.648l-48.476-48.476    c13.902-10.466,30.465-17.574,48.476-20.123V340.648z M320.284,361.649h-68.599l48.475-48.476    C310.627,327.076,317.735,343.639,320.284,361.649z M230.683,272.049c18.01,2.549,34.574,9.657,48.477,20.124l-48.477,48.477    V272.049z M230.683,480.95v-68.6l48.477,48.477C265.256,471.293,248.692,478.401,230.683,480.95z M300.159,439.826l-48.476-48.477    h68.6C317.734,409.36,310.626,425.923,300.159,439.826z" fill="#ffffff" data-original="#000000" style="" class=""/>
	</g>
</g>
<g xmlns="http://www.w3.org/2000/svg">
</g>
<g xmlns="http://www.w3.org/2000/svg">
</g>
<g xmlns="http://www.w3.org/2000/svg">
</g>
<g xmlns="http://www.w3.org/2000/svg">
</g>
<g xmlns="http://www.w3.org/2000/svg">
</g>
<g xmlns="http://www.w3.org/2000/svg">
</g>
<g xmlns="http://www.w3.org/2000/svg">
</g>
<g xmlns="http://www.w3.org/2000/svg">
</g>
<g xmlns="http://www.w3.org/2000/svg">
</g>
<g xmlns="http://www.w3.org/2000/svg">
</g>
<g xmlns="http://www.w3.org/2000/svg">
</g>
<g xmlns="http://www.w3.org/2000/svg">
</g>
<g xmlns="http://www.w3.org/2000/svg">
</g>
<g xmlns="http://www.w3.org/2000/svg">
</g>
<g xmlns="http://www.w3.org/2000/svg">
</g>
</g></svg>
