<svg enable-background="new 0 0 24 24" height="512" viewBox="0 0 24 24" width="512" xmlns="http://www.w3.org/2000/svg"><path d="m5.15 17.5h-3.02l-.12.61c-.04.22.02.45.16.62s.36.27.58.27h2.29c-.03-.16-.04-.33-.04-.5 0-.35.05-.68.15-1zm10.68-10.22c-.14-.18-.35-.28-.58-.28h-10.5c-.36 0-.67.26-.74.61l-.07.39h2.31c.96 0 1.75.79 1.75 1.75 0 .64-.35 1.19-.86 1.5.51.31.86.86.86 1.5s-.35 1.19-.86 1.5c.31.19.56.47.71.81.21-.04.43-.06.65-.06 1.93 0 3.5 1.57 3.5 3.5 0 .17-.01.34-.04.5h1.04c.35 0 .66-.25.73-.59l2.25-10.5c.05-.22 0-.45-.15-.63z"/><path d="m19.25 10h-2.14c-.36 0-.66.25-.74.59l-1.6 7.5c-.05.22 0 .45.15.63.14.18.35.28.58.28h.54c-.03-.16-.04-.33-.04-.5 0-1.93 1.57-3.5 3.5-3.5s3.5 1.57 3.5 3.5c0 .11 0 .21-.02.32.13-.1.22-.24.25-.41l.75-3.5c.01-.05.02-.11.02-.16 0-2.62-2.13-4.75-4.75-4.75z"/><path d="m6.25 10.5h-3.5c-.414 0-.75-.336-.75-.75s.336-.75.75-.75h3.5c.414 0 .75.336.75.75s-.336.75-.75.75z"/><path d="m6.25 13.5h-4.5c-.414 0-.75-.336-.75-.75s.336-.75.75-.75h4.5c.414 0 .75.336.75.75s-.336.75-.75.75z"/><path d="m6.25 16.5h-5.5c-.414 0-.75-.336-.75-.75s.336-.75.75-.75h5.5c.414 0 .75.336.75.75s-.336.75-.75.75z"/><path d="m19.5 21c-1.378 0-2.5-1.121-2.5-2.5s1.122-2.5 2.5-2.5 2.5 1.121 2.5 2.5-1.122 2.5-2.5 2.5z"/><path d="m8.5 21c-1.378 0-2.5-1.121-2.5-2.5s1.122-2.5 2.5-2.5 2.5 1.121 2.5 2.5-1.122 2.5-2.5 2.5z"/></svg>