<svg id="Layer_5" enable-background="new 0 0 64 64" height="512" viewBox="0 0 64 64" width="512" xmlns="http://www.w3.org/2000/svg"><g><path d="m27 48c0 2.757 2.243 5 5 5s5-2.243 5-5-2.243-5-5-5-5 2.243-5 5zm5-2c1.105 0 2 .895 2 2s-.895 2-2 2-2-.895-2-2 .895-2 2-2z"/><path d="m39 21.292c0 4.03.917 8.062 2.638 11.708h5.793c-1.594-3.682-2.431-7.698-2.431-11.708v-.584c0-4.01.837-8.026 2.432-11.708h-5.793c-1.722 3.646-2.639 7.678-2.639 11.708z"/><path d="m33 41.08v-6.08h-2v6.08c.328-.047.66-.08 1-.08s.672.033 1 .08z"/><path d="m33 4c0-.551-.448-1-1-1s-1 .449-1 1v3h2z"/><path d="m39 48c0 2.757 2.243 5 5 5s5-2.243 5-5-2.243-5-5-5-5 2.243-5 5zm7 0c0 1.105-.895 2-2 2s-2-.895-2-2 .895-2 2-2 2 .895 2 2z"/><path d="m31 21.292c0 4.03.917 8.062 2.638 11.708h5.796c-1.594-3.683-2.434-7.697-2.434-11.708v-.584c0-4.011.84-8.025 2.435-11.708h-5.796c-1.722 3.646-2.639 7.678-2.639 11.708z"/><path d="m20 53c2.757 0 5-2.243 5-5s-2.243-5-5-5-5 2.243-5 5 2.243 5 5 5zm0-7c1.105 0 2 .895 2 2s-.895 2-2 2-2-.895-2-2 .895-2 2-2z"/><path d="m60.465 35c-1.91 0-3.465 1.554-3.465 3.465 0 3.742-2.745 6.847-6.325 7.429.21.665.325 1.372.325 2.106 0 3.86-3.141 7-7 7-2.548 0-4.775-1.373-6-3.413-1.225 2.04-3.452 3.413-6 3.413s-4.775-1.373-6-3.413c-1.225 2.04-3.452 3.413-6 3.413-3.859 0-7-3.14-7-7 0-.931.186-1.818.518-2.631-2.71-1.181-4.518-3.867-4.518-6.904v-8.465c0-2.757-2.243-5-5-5-.354 0-.664.184-.842.461l.053.026c2.337 1.169 3.789 3.518 3.789 6.131 0 1.058-.25 2.118-.724 3.065l-1.669 3.338c-1.051 2.104-1.607 4.459-1.607 6.81v.942c0 3.769 1.388 7.386 3.908 10.187 2.884 3.203 7.01 5.04 11.319 5.04h29.773c6.065 0 11-4.935 11-11v-7.859c0-2.252.66-4.434 1.91-6.309.059-.088.09-.191.09-.297 0-.295-.24-.535-.535-.535z"/><path d="m23.435 33c-1.595-3.683-2.435-7.697-2.435-11.708v-.584c0-4.011.84-8.025 2.435-11.708h-5.809c-1.72 3.645-2.626 7.679-2.626 11.708v.584c0 4.029.906 8.063 2.626 11.708z"/><path d="m23 21.292c0 4.03.917 8.062 2.638 11.708h5.796c-1.594-3.683-2.434-7.697-2.434-11.708v-.584c0-4.011.84-8.025 2.435-11.708h-5.796c-1.722 3.646-2.639 7.678-2.639 11.708z"/></g></svg>