<svg width="57" height="50" viewBox="0 0 57 50" fill="none" xmlns="http://www.w3.org/2000/svg">
<path d="M32.9531 37.5C32.9531 39.6539 30.9555 41.4062 28.5 41.4062C26.0445 41.4062 24.0469 39.6539 24.0469 37.5C24.0469 35.3461 26.0445 33.5938 28.5 33.5938C30.9555 33.5938 32.9531 35.3461 32.9531 37.5ZM28.5 35.9375C27.5159 35.9375 26.7188 36.6367 26.7188 37.5C26.7188 38.3633 27.5159 39.0625 28.5 39.0625C29.4841 39.0625 30.2812 38.3633 30.2812 37.5C30.2812 36.6367 29.4841 35.9375 28.5 35.9375Z" fill="#BCC1CA"/>
<path d="M22.2656 16.6344C22.2656 19.7828 21.4489 22.9328 19.9162 25.7812H14.7568C16.1764 22.9047 16.9219 19.7672 16.9219 16.6344V16.1781C16.9219 13.0453 16.1764 9.90781 14.7559 7.03125H19.9153C21.4489 9.87969 22.2656 13.0297 22.2656 16.1781V16.6344Z" fill="#BCC1CA"/>
<path d="M27.6094 32.0937V27.3438H29.3906V32.0937C29.0985 32.057 28.8028 32.0312 28.5 32.0312C28.1972 32.0312 27.9015 32.057 27.6094 32.0937Z" fill="#BCC1CA"/>
<path d="M27.6094 3.125C27.6094 2.69453 28.0084 2.34375 28.5 2.34375C28.9916 2.34375 29.3906 2.69453 29.3906 3.125V5.46875H27.6094V3.125Z" fill="#BCC1CA"/>
<path d="M22.2656 37.5C22.2656 39.6539 20.268 41.4062 17.8125 41.4062C15.357 41.4062 13.3594 39.6539 13.3594 37.5C13.3594 35.3461 15.357 33.5938 17.8125 33.5938C20.268 33.5938 22.2656 35.3461 22.2656 37.5ZM16.0312 37.5C16.0312 38.3633 16.8284 39.0625 17.8125 39.0625C18.7966 39.0625 19.5938 38.3633 19.5938 37.5C19.5938 36.6367 18.7966 35.9375 17.8125 35.9375C16.8284 35.9375 16.0312 36.6367 16.0312 37.5Z" fill="#BCC1CA"/>
<path d="M29.3906 16.6344C29.3906 19.7828 28.5739 22.9328 27.0412 25.7812H21.8791C23.2988 22.9039 24.0469 19.768 24.0469 16.6344V16.1781C24.0469 13.0445 23.2987 9.90859 21.8782 7.03125H27.0403C28.5739 9.87969 29.3906 13.0297 29.3906 16.1781V16.6344Z" fill="#BCC1CA"/>
<path d="M39.1875 41.4062C36.732 41.4062 34.7344 39.6539 34.7344 37.5C34.7344 35.3461 36.732 33.5938 39.1875 33.5938C41.643 33.5938 43.6406 35.3461 43.6406 37.5C43.6406 39.6539 41.643 41.4062 39.1875 41.4062ZM39.1875 35.9375C38.2034 35.9375 37.4062 36.6367 37.4062 37.5C37.4062 38.3633 38.2034 39.0625 39.1875 39.0625C40.1716 39.0625 40.9688 38.3633 40.9688 37.5C40.9688 36.6367 40.1716 35.9375 39.1875 35.9375Z" fill="#BCC1CA"/>
<path d="M3.14836 27.3438C4.84945 27.3438 6.23438 28.5578 6.23438 30.0508C6.23438 32.9742 8.67914 35.4 11.8676 35.8547C11.6805 36.3742 11.5781 36.9266 11.5781 37.5C11.5781 40.5156 14.3756 42.9688 17.8125 42.9688C20.0818 42.9688 22.0652 41.8961 23.1562 40.3023C24.2473 41.8961 26.2307 42.9688 28.5 42.9688C30.7693 42.9688 32.7527 41.8961 33.8438 40.3023C34.9348 41.8961 36.9182 42.9688 39.1875 42.9688C42.6244 42.9688 45.4219 40.5156 45.4219 37.5C45.4219 36.7727 45.2562 36.0797 44.9605 35.4445C47.3741 34.5219 48.9844 32.4234 48.9844 30.0508V23.4375C48.9844 21.2836 50.982 19.5312 53.4375 19.5312C53.7528 19.5312 54.0289 19.675 54.1874 19.8914L54.1402 19.9117C52.0588 20.825 50.7656 22.6602 50.7656 24.7016C50.7656 25.5281 50.9883 26.3562 51.4104 27.0961L52.8969 29.7039C53.8329 31.3477 54.3281 33.1875 54.3281 35.0242V35.7602C54.3281 38.7047 53.0919 41.5305 50.8476 43.7187C48.279 46.2211 44.6043 47.6562 40.7666 47.6562H14.25C8.84836 47.6562 4.45312 43.8008 4.45312 39.0625V32.9227C4.45312 31.1633 3.86531 29.4586 2.75203 27.9938C2.69948 27.925 2.67188 27.8445 2.67188 27.7617C2.67188 27.5312 2.88562 27.3438 3.14836 27.3438V27.3438Z" fill="#BCC1CA"/>
<path d="M36.1282 25.7812C37.5488 22.9039 38.2969 19.768 38.2969 16.6344V16.1781C38.2969 13.0445 37.5488 9.90859 36.1282 7.03125H41.3018C42.8337 9.87891 43.6406 13.0305 43.6406 16.1781V16.6344C43.6406 19.782 42.8337 22.9336 41.3018 25.7812H36.1282Z" fill="#BCC1CA"/>
<path d="M36.5156 16.6344C36.5156 19.7828 35.6989 22.9328 34.1662 25.7812H29.0041C30.4238 22.9039 31.1719 19.768 31.1719 16.6344V16.1781C31.1719 13.0445 30.4238 9.90859 29.0032 7.03125H34.1653C35.6989 9.87969 36.5156 13.0297 36.5156 16.1781V16.6344Z" fill="#BCC1CA"/>
</svg>
